/* XPM */
static char *_5a1bdb8278b4956cb0817d00e8102bd[] = {
/* columns rows colors chars-per-pixel */
"100 100 70 1 ",
"  c #37768E",
". c #39778E",
"X c #3E788E",
"o c #357C96",
"O c #3C7E97",
"+ c #447A8E",
"@ c #4C7C8E",
"# c #547E8E",
"$ c #5B7F8E",
"% c #407F97",
"& c #3E8097",
"* c #5E808E",
"= c #448097",
"- c #4C8297",
"; c #538497",
": c #5A8697",
"> c #568598",
", c #5B8698",
"< c #5F8898",
"1 c #61818E",
"2 c #668591",
"3 c #608798",
"4 c #648898",
"5 c #698A98",
"6 c #798B95",
"7 c #7A8E99",
"8 c #448AA4",
"9 c #4C8CA4",
"0 c #548FA4",
"q c #588FA4",
"w c #5C91A4",
"e c #6392A5",
"r c #6C94A6",
"t c #56B4D6",
"y c #5BB5D6",
"u c #62B7D6",
"i c #67B8D7",
"p c #6CB9D7",
"a c #72BBD7",
"s c #7ABDD7",
"d c #75BCD8",
"f c #7EBFD8",
"g c #64CFF6",
"h c #66D0F6",
"j c #6CD1F6",
"k c #6CD5FB",
"l c #72D3F7",
"z c #74D6FB",
"x c #7CD5F8",
"c c #77D8FC",
"v c #7CD9FC",
"b c #839AA7",
"n c #82BFD8",
"m c #86C0D8",
"M c #8BC2D9",
"N c #91C3D9",
"B c #ACC9D9",
"V c #82D6F8",
"C c #85DAFC",
"Z c #8DDCFC",
"A c #94DFFD",
"S c #99DFFC",
"D c #A3DFFA",
"F c #96E0FD",
"G c #9CE1FD",
"H c #A3E2FE",
"J c #A9E4FE",
"K c #C5E8FA",
"L c #C9ECFF",
"P c None",
/* pixels */
"PPPPPPPPPPPPPPPPPPPPPPPPPPPPPPPPPPPPPPPPPPPPPPPPPPPPPPPPPPPPPPPPPPPPPPPPPPPPPPPPPPPPPPPPPPPPPPPPPPPP",
"PPPPPPPPPPPPPPPPPPPPPPPPPPPPPPPPPPPPPPPPPPPPPPPPPPPPPPPPPPPPPPPPPPPPPPPPPPPPPPPPPPPPPPPPPPPPPPPPPPPP",
"PPPPPPPPPPPPPPPPPPPPPPPPPPPPPPPPPPPPPPPPPPPPPPPPPPPPPPPPPPPPPPPPPPPPPPPPPPPPPPPPPPPPPPPPPPPPPPPPPPPP",
"PPPPPPPPPPPPPPPPPPPPPPPPPPPPPPPPPPPPPPPPPPPPPPPPPPPPPPPPPPPPPPPPPPPPPPPPPPPPPPPPPPPPPPPPPPPPPPPPPPPP",
"PPPPPPPPPPPPPPPPPPPPPPPPPPPPPPPPPPPPPPPPPPPPPPPPPPPPPPPPPPPPPPPPPPPPPPPPPPPPPPPPPPPPPPPPPPPPPPPPPPPP",
"PPPPPPPPPPPPPPPPPPPPPPPPPPPPPPPPPPPPPPPPPPPPPPPPPPPPPPPPPPPPPPPPPPPPPPPPPPPPPPPPPPPPPPPPPPPPPPPPPPPP",
"PPPPPPPPPPPPPPPPPPPPPPPPPPPPPPPPPPPPPPPPPPPPPPPPPPPPPPPPPPPPPPPPPPPPPPPPPPPPPPPPPPPPPPPPPPPPPPPPPPPP",
"PPPPPPPPPPPPPPPPPPPPPPPPPPPPPPPPPPPPPPPPPPPPPPPPPPPPPPPPPPPPPPPPPPPPPPPPPPPPPPPPPPPPPPPPPPPPPPPPPPPP",
"PPPPPPPPPPPPPPPPPPPPPPPPPPPPPPPPPPPPPPPPPPPPPPPPPPPPPPPPPPPPPPPPPPPPPPPPPPPPPPPPPPPPPPPPPPPPPPPPPPPP",
"PPPPPPPPPPPPPPPPPPPPPPPPPPPPPPPPPPPPPPPPPPPPPPPPPPPPPPPPPPPPPPPPPPPPPPPPPPPPPPPPPPPPPPPPPPPPPPPPPPPP",
"PPPPPPPPPPPPPPPPPPPPPPPPPPPPPPPPPPPPPPPPPPPPPPPPPPPPPPPPPPPPPPPPPPPPPPPPPPPPPPPPPPPPPPPPPPPPPPPPPPPP",
"PPPPPPPPPPPPPPPPPPPPPPPPPPPPPPPPPPPPPPPPPPPPPPPPPPPPPPPPPPPPPPPPPPPPPPPPPPPPPPPPPPPPPPPPPPPPPPPPPPPP",
"PPPPPPPPPPPPPPPPPPPPPPPPPPPPPPPPPPPPPPPPPPPPPPPPPPPPPPPPPPPPPPPPPPPPPPPPPPPPPPPPPPPPPPPPPPPPPPPPPPPP",
"PPPPPPPPPPPPP7PPPPPPPPPPPPPPPPPPPPPPPPPPPPPPPPPPPPPPPPPPPPPPPPPPPPPPPPPPPPPPPPPPPPPPPPPPPPPPPPPPPPPP",
"PPPPPPPPPPPPP776PPPPPPPPPPPPPPPPPPPPPPPPPPPPPPPPPPPPPPPPPPPPPPPPPPPPPPPPPPPPPPPPPPPPPPPPPPPPPPPPPPPP",
"PPPPPPPPPPPPP77776PPPPPPPPPPPPPPPPPPPPPPPPPPPPPPPPPPPPPPPPPPPPPPPPPPPPPPPPPPPPPPPPPPPPPPPPPPPPPPPPPP",
"PPPPPPPPPPPPPb777776PPPPPPPPPPPPPPPPPPPPPPPPPPPPPPPPPPPPPPPPPPPPPPPPPPPPPPPPPPPPPPPPPPPPPPPPPPPPPPPP",
"PPPPPPPPPPPPP677777776PPPPPPPPPPPPPPPPPPPPPPPPPPPPPPPPPPPPPPPPPPPPPPPPPPPPPPPPPPPPPPPPPPPPPPPPPPPPPP",
"PPPPPPPPPPPPP776777777b6PPPPPPPPPPPPPPPPPPPPPPPPPPPPPPPPPPPPPPPPPPPPPPPPPPPPPPPPPPPPPPPPPPPPPPPPPPPP",
"PPPPPPPPPPPPP7b67777777676PPPPPPPPPPPPPPPPPPPPPPPPPPPPPPPPPPPPPPPPPPPPPPPPPPPPPPPPPPPPPPPPPPPPPPPPPP",
"PPPPPPPPPPPPP777777776777776PPPPPPPPPPPPPPPPPPPPPPPPPPPPPPPPPPPPPPPPPPPPPPPPPPPPPPPPPPPPPPPPPPPPPPPP",
"PPPPPPPPPPPPP77777777776777777PPPPPPPPPPPPPPPPPPPPPPPPPPPPPPPPPPPPPPPPPPPPPPPPPPPPPPPPPPPPPPPPPPPPPP",
"PPPPPPPPPPPPP777776b777777777776PPPPPPPPPPPPPPPPPPPPPPPPPPPPPPPPPPPPPPPPPPPPPPPPPPPPPPPPPPPPPPPPPPPP",
"PPPPPPPPPPPPP777776LBb777777777776PPPPPPPPPPPPPPPPPPPPPPPPPPPPPPPPPPPPPPPPPPPPPPPPPPPPPPPPPPPPPPPPPP",
"PPPPPPPPPPPPP777776LLKB7777777777776PPPPPPPPPPPPPPPPPPPPPPPPPPPPPPPPPPPPPPPPPPPPPPPPPPPPPPPPPPPPPPPP",
"PPPPPPPPPPPPP677776LLLLKBb777777777777PPPPPPPPPPPPPPPPPPPPPPPPPPPPPPPPPPPPPPPPPPPPPPPPPPPPPPPPPPPPPP",
"PPPPPPPPPPPPPb77777LLLLLLLBr777777777776PPPPPPPPPPPPPPPPPPPPPPPPPPPPPPPPPPPPPPPPPPPPPPPPPPPPPPPPPPPP",
"PPPPPPPPPPPPP777777LLLLLLLLLBb777777777776PPPPPPPPPPPPPPPPPPPPPPPPPPPPPPPPPPPPPPPPPPPPPPPPPPPPPPPPPP",
"PPPPPPPPPPPPP777767LLLLLLLLLLKBb777777777776PPPPPPPPPPPPPPPPPPPPPPPPPPPPPPPPPPPPPPPPPPPPPPPPPPPPPPPP",
"PPPPPPPPPPPPP777777LLLLLLLLLLLLKBb767777777777PPPPPPPPPPPPPPPPPPPPPPPPPPPPPPPPPPPPPPPPPPPPPPPPPPPPPP",
"PPPPPPPPPPPPP777777LLLLLLLLLLLLLLKBb777777777777PPPPPPPPPPPPPPPPPPPPPPPPPPPPPPPPPPPPPPPPPPPPPPPPPPPP",
"PPPPPPPPPPPPP777777KLLLLLLLLLLLLLLLLBb777777777776PPPPPPPPPPPPPPPPPPPPPPPPPPPPPPPPPPPPPPPPPPPPPPPPPP",
"PPPPPPPPPPPPP777777LLLLLLLLLLLLLLLLLLKBb677767777776PPPPPPPPPPPPPPPPPPPPPPPPPPPPPPPPPPPPPPPPPPPPPPPP",
"PPPPPPPPPPPPP777777LLLLLLLLLLLLLLLLLLLLKBb777777777776PPPPPPPPPPPPPPPPPPPPPPPPPPPPPPPPPPPPPPPPPPPPPP",
"PPPPPPPPPPPPP777777LLLLLLLLLLLLLLLLLLLLLLKBb776777777776PPPPPPPPPPPPPPPPPPPPPPPPPPPPPPPPPPPPPPPPPPPP",
"PPPPPPPPPPPPP777777LLLLLLLLLLLLLLLLLLLLLLLLKBb777777777777PPPPPPPPPPPPPPPPPPPPPPPPPPPPPPPPPPPPPPPPPP",
"PPPPPPPPPPPPP777677KLLLLLLLLLLLLLLLLLLLLLLLLLKBb777777777776PPPPPPPPPPPPPPPPPPPPPPPPPPPPPPPPPPPPPPPP",
"PPPPPPPPPPPPP7b6677KLLLLLLLLLLLLLLLLLLLLLLLLLLLKBb777777777776PPPPPPPPPPPPPPPPPPPPPPPPPPPPPPPPPPPPPP",
"PPPPPPPPPPPPP777777LLLLLLLLLLLLLLLLLLLLLLLLLLLLLLKBb777777777777PPPPPPPPPPPPPPPPPPPPPPPPPPPPPPPPPPPP",
"PPPPPPPPPPPPP777777LLLLLLLLLLLLLLLLLLLLLLLLLLLLLLLLKBr777777777676PPPPPPPPPPPPPPPPPPPPPPPPPPPPPPPPPP",
"PPPPPPPPPPPPP777777LLLLLLLLLLLLLLLLLLLLLLLLLLLLLLLLLLKBb776777777776PPPPPPPPPPPPPPPPPPPPPPPPPPPPPPPP",
"PPPPPPPPPPPPP777777LLLLLLLLLLLLLLLLLLLLLLLLLLLLLLLLLLLLKBb777677777776PPPPPPPPPPPPPPPPPPPPPPPPPPPPPP",
"PPPPPPPPPPPPPb77577LLLLLLLLLLLLLLLLLLLLLLLLLLLLLLLLLLLLLLLBb777777777776PPPPPPPPPPPPPPPPPPPPPPPPPPPP",
"PPPPPPPPPPPPP777777LLLLLLLLLLLLLLLLLLLLLLLLLLLLLLLLLLLLLLLLLBb777777777776PPPPPPPPPPPPPPPPPPPPPPPPPP",
"PPPPPPPPPPPPP777777LLLLLLLLLLLLLLLLLLLLLLLLLLLLLLLLLLLLLLLLLLKBb777777777777PPPPPPPPPPPPPPPPPPPPPPPP",
"PPPPPPPPPPPPP777777LLLLLLLLLLLLLLLLLLLLLLLLLLLLLLLLLLLLLLLLLLLLKBb777767777776PPPPPPPPPPPPPPPPPPPPPP",
"PPPPPPPPPPPPP777777KLLLLLLLLLLLLLLLLLLLLLLLLLLLLLLLLLLLLLLLLLLLLLKBb777777777777PPPPPPPPPPPPPPPPPPPP",
"PPPPPPPPPPPPP777577LLLLLLLLLLLLLLLLLLLLLLLLLLLLLLLLLLLLLLLLLLLLLLLLKBb777777767777PPPPPPPPPPPPPPPPPP",
"PPPPPPPPPPPPP777777LLLLLLLLLLLLLLLLLLLLLLLLLLLLLLLLLLLLLLLLLLLLLLLLLLKBb777767777776PPPPPPPPPPPPPPPP",
"PPPPPPPPPPPPP777777LLLLLLLLLLLLLLLLLLLLLLLLLLLLLLLLLLLLLLLLLLLLLLLLLLLLKBb777777777777PPPPPPPPPPPPPP",
"PPPPPPPPPPPPP575545JJJJJJJJJJJJJJJJJJJJJJJJJJJJJJJJJJJJJJJJJJJJJJJJJJJJJJJNr554555555552PPPPPPPPPPPP",
"PPPPPPPPPPPPP555444JHJJJJJJJJJJJJJJJJJJJJJJJJJJJJJJJJJJJJJJJJJJJHJJJJJJDNr454444555552PPPPPPPPPPPPPP",
"PPPPPPPPPPPPP555344HJHHHHJHHJHHHJHJHHJHJHJHJHHJJJJHJHJHHHJJHHHJHJHHJHDNr444443455551PPPPPPPPPPPPPPPP",
"PPPPPPPPPPPPP554443HHHJHHHHHJHHHHHHHHHHHHHHHHHHHHHHHHHHHHHHHHJJHHHHHNr4,4444444551PPPPPPPPPPPPPPPPPP",
"PPPPPPPPPPPPP54444<HHHHHHHHHHHHHHHHHHHHHHHHHHHHHHHHHHHHHHHHHHHHHHSmr<44444444251PPPPPPPPPPPPPPPPPPPP",
"PPPPPPPPPPPPP4433,<HGGHGHGGHGHGHGHGHGHGGHGHGGHGHHSHSHGGHHGHGGHGSmr<43,3<,44441PPPPPPPPPPPPPPPPPPPPPP",
"PPPPPPPPPPPPP443,3<GGGGGGGGGGGGGGGGGGGGGGGGGGGGGGGGGGHHSGGSHSDne,3,3,4,4444*PPPPPPPPPPPPPPPPPPPPPPPP",
"PPPPPPPPPPPPP44,,,,GGGGGGGGGGGGGGSGGGGGGGGGGGGGGGGGGGSSSGGSSne<<3,3,,<444$PPPPPPPPPPPPPPPPPPPPPPPPPP",
"PPPPPPPPPPPPP34:,,:SSGAGGSGFSGAGSGFGGGGFGFGSSGSSGGGGSGSSFAne,,,,,,:<343$PPPPPPPPPPPPPPPPPPPPPPPPPPPP",
"PPPPPPPPPPPPP44:,,:ASASAAASAAAAAAGAAASAAAAAAASAAAAAAAASZne::,:::,,<<4$PPPPPPPPPPPPPPPPPPPPPPPPPPPPPP",
"PPPPPPPPPPPPP4<::::FFFAFFAAAFAFFFFAFAAAAAAAFAASSAAAAAZne:::::::,<<<*PPPPPPPPPPPPPPPPPPPPPPPPPPPPPPPP",
"PPPPPPPPPPPPP,,>>:>AZAZAAAAZFZZAAZZAAAAZAAAZAAZAAAAZfe;:>:>:::,,,$PPPPPPPPPPPPPPPPPPPPPPPPPPPPPPPPPP",
"PPPPPPPPPPPPP,,>>>>AZZAZZAZZZAZAZZZFZAZZZZAZZZZZZZsw>;>>>>>:,,,$PPPPPPPPPPPPPPPPPPPPPPPPPPPPPPPPPPPP",
"PPPPPPPPPPPPP,,>>;>ZZZZZZZZZZZZZZZZZZZZZZZZZZZZZsw;;;>>>>:<,,#PPPPPPPPPPPPPPPPPPPPPPPPPPPPPPPPPPPPPP",
"PPPPPPPPPPPPP::;;;;ZZCZZZZCZCACZZZZZZCZCZZZZCZdq;;>;;;;>:::*PPPPPPPPPPPPPPPPPPPPPPPPPPPPPPPPPPPPPPPP",
"PPPPPPPPPPPPP::;;-;CCCCCCCCCCCCCCCCCZCCCCCCVdq;;@;-;;;>>;#PPPPPPPPPPPPPPPPPPPPPPPPPPPPPPPPPPPPPPPPPP",
"PPPPPPPPPPPPP;:--;-CCCCCCCCCCCCCCCCCCCCCCVaq;-;;--;;>>:#PPPPPPPPPPPPPPPPPPPPPPPPPPPPPPPPPPPPPPPPPPPP",
"PPPPPPPPPPPPP>;;;--CCvCCCCCCCCCCvCCCCvCva0-;----;;>>;#PPPPPPPPPPPPPPPPPPPPPPPPPPPPPPPPPPPPPPPPPPPPPP",
"PPPPPPPPPPPPP;;----CvvVvvCvVvvCvvVvvvvp0--------;;;#PPPPPPPPPPPPPPPPPPPPPPPPPPPPPPPPPPPPPPPPPPPPPPPP",
"PPPPPPPPPPPPP;;----vvvvvvvvvvvvvvvvxp9-------;;;;@PPPPPPPPPPPPPPPPPPPPPPPPPPPPPPPPPPPPPPPPPPPPPPPPPP",
"PPPPPPPPPPPPP;;-=--ccccvccccvccccxi0---==-----;@PPPPPPPPPPPPPPPPPPPPPPPPPPPPPPPPPPPPPPPPPPPPPPPPPPPP",
"PPPPPPPPPPPPP----%=ccccccccccccli9=%-%-==---;@PPPPPPPPPPPPPPPPPPPPPPPPPPPPPPPPPPPPPPPPPPPPPPPPPPPPPP",
"PPPPPPPPPPPPP--====czzzczzzzzli9%-===-=----@PPPPPPPPPPPPPPPPPPPPPPPPPPPPPPPPPPPPPPPPPPPPPPPPPPPPPPPP",
"PPPPPPPPPPPPP--=%%=kkzkzkzzly8%%==%===---@PPPPPPPPPPPPPPPPPPPPPPPPPPPPPPPPPPPPPPPPPPPPPPPPPPPPPPPPPP",
"PPPPPPPPPPPPP--&===kkkkkkju8%%%%=&==---+PPPPPPPPPPPPPPPPPPPPPPPPPPPPPPPPPPPPPPPPPPPPPPPPPPPPPPPPPPPP",
"PPPPPPPPPPPPP=-=%%=kkkkhy8%%%%%%===--+PPPPPPPPPPPPPPPPPPPPPPPPPPPPPPPPPPPPPPPPPPPPPPPPPPPPPPPPPPPPPP",
"PPPPPPPPPPPPP-=&%%%khgt8O=&O%%%==-=+PPPPPPPPPPPPPPPPPPPPPPPPPPPPPPPPPPPPPPPPPPPPPPPPPPPPPPPPPPPPPPPP",
"PPPPPPPPPPPPP==&OOOgt8&&OOOO%====+PPPPPPPPPPPPPPPPPPPPPPPPPPPPPPPPPPPPPPPPPPPPPPPPPPPPPPPPPPPPPPPPPP",
"PPPPPPPPPPPPP==OOOO8OOOOOOO&===+PPPPPPPPPPPPPPPPPPPPPPPPPPPPPPPPPPPPPPPPPPPPPPPPPPPPPPPPPPPPPPPPPPPP",
"PPPPPPPPPPPPP==&OoOoOOoOO&===XPPPPPPPPPPPPPPPPPPPPPPPPPPPPPPPPPPPPPPPPPPPPPPPPPPPPPPPPPPPPPPPPPPPPPP",
"PPPPPPPPPPPPP==OoOoOOoOO&==XPPPPPPPPPPPPPPPPPPPPPPPPPPPPPPPPPPPPPPPPPPPPPPPPPPPPPPPPPPPPPPPPPPPPPPPP",
"PPPPPPPPPPPPP&&ooooooOO==.PPPPPPPPPPPPPPPPPPPPPPPPPPPPPPPPPPPPPPPPPPPPPPPPPPPPPPPPPPPPPPPPPPPPPPPPPP",
"PPPPPPPPPPPPPOOooooOO%O.PPPPPPPPPPPPPPPPPPPPPPPPPPPPPPPPPPPPPPPPPPPPPPPPPPPPPPPPPPPPPPPPPPPPPPPPPPPP",
"PPPPPPPPPPPPPOOooo&O&.PPPPPPPPPPPPPPPPPPPPPPPPPPPPPPPPPPPPPPPPPPPPPPPPPPPPPPPPPPPPPPPPPPPPPPPPPPPPPP",
"PPPPPPPPPPPPPOOoOOO.PPPPPPPPPPPPPPPPPPPPPPPPPPPPPPPPPPPPPPPPPPPPPPPPPPPPPPPPPPPPPPPPPPPPPPPPPPPPPPPP",
"PPPPPPPPPPPPPO&OO PPPPPPPPPPPPPPPPPPPPPPPPPPPPPPPPPPPPPPPPPPPPPPPPPPPPPPPPPPPPPPPPPPPPPPPPPPPPPPPPPP",
"PPPPPPPPPPPPPOO PPPPPPPPPPPPPPPPPPPPPPPPPPPPPPPPPPPPPPPPPPPPPPPPPPPPPPPPPPPPPPPPPPPPPPPPPPPPPPPPPPPP",
"PPPPPPPPPPPPPoPPPPPPPPPPPPPPPPPPPPPPPPPPPPPPPPPPPPPPPPPPPPPPPPPPPPPPPPPPPPPPPPPPPPPPPPPPPPPPPPPPPPPP",
"PPPPPPPPPPPPPPPPPPPPPPPPPPPPPPPPPPPPPPPPPPPPPPPPPPPPPPPPPPPPPPPPPPPPPPPPPPPPPPPPPPPPPPPPPPPPPPPPPPPP",
"PPPPPPPPPPPPPPPPPPPPPPPPPPPPPPPPPPPPPPPPPPPPPPPPPPPPPPPPPPPPPPPPPPPPPPPPPPPPPPPPPPPPPPPPPPPPPPPPPPPP",
"PPPPPPPPPPPPPPPPPPPPPPPPPPPPPPPPPPPPPPPPPPPPPPPPPPPPPPPPPPPPPPPPPPPPPPPPPPPPPPPPPPPPPPPPPPPPPPPPPPPP",
"PPPPPPPPPPPPPPPPPPPPPPPPPPPPPPPPPPPPPPPPPPPPPPPPPPPPPPPPPPPPPPPPPPPPPPPPPPPPPPPPPPPPPPPPPPPPPPPPPPPP",
"PPPPPPPPPPPPPPPPPPPPPPPPPPPPPPPPPPPPPPPPPPPPPPPPPPPPPPPPPPPPPPPPPPPPPPPPPPPPPPPPPPPPPPPPPPPPPPPPPPPP",
"PPPPPPPPPPPPPPPPPPPPPPPPPPPPPPPPPPPPPPPPPPPPPPPPPPPPPPPPPPPPPPPPPPPPPPPPPPPPPPPPPPPPPPPPPPPPPPPPPPPP",
"PPPPPPPPPPPPPPPPPPPPPPPPPPPPPPPPPPPPPPPPPPPPPPPPPPPPPPPPPPPPPPPPPPPPPPPPPPPPPPPPPPPPPPPPPPPPPPPPPPPP",
"PPPPPPPPPPPPPPPPPPPPPPPPPPPPPPPPPPPPPPPPPPPPPPPPPPPPPPPPPPPPPPPPPPPPPPPPPPPPPPPPPPPPPPPPPPPPPPPPPPPP",
"PPPPPPPPPPPPPPPPPPPPPPPPPPPPPPPPPPPPPPPPPPPPPPPPPPPPPPPPPPPPPPPPPPPPPPPPPPPPPPPPPPPPPPPPPPPPPPPPPPPP",
"PPPPPPPPPPPPPPPPPPPPPPPPPPPPPPPPPPPPPPPPPPPPPPPPPPPPPPPPPPPPPPPPPPPPPPPPPPPPPPPPPPPPPPPPPPPPPPPPPPPP",
"PPPPPPPPPPPPPPPPPPPPPPPPPPPPPPPPPPPPPPPPPPPPPPPPPPPPPPPPPPPPPPPPPPPPPPPPPPPPPPPPPPPPPPPPPPPPPPPPPPPP",
"PPPPPPPPPPPPPPPPPPPPPPPPPPPPPPPPPPPPPPPPPPPPPPPPPPPPPPPPPPPPPPPPPPPPPPPPPPPPPPPPPPPPPPPPPPPPPPPPPPPP"
};
