/* XPM */
static char *b23fe3041f984fd5b91afe9d4ade1387[] = {
/* columns rows colors chars-per-pixel */
"100 100 2 1 ",
"  c #434343",
". c gray100",
/* pixels */
"....................................................................................................",
"....................................................................................................",
"..                                                                                                ..",
"..                                                                                                ..",
"..                                                                                                ..",
"..                                                                                                ..",
"..                                                                                                ..",
"..                                                                                                ..",
"..                                                                                                ..",
"..                                                                                                ..",
"..                                                                                                ..",
"..                                                                                                ..",
"..                                                                                                ..",
"..                                                                                                ..",
"..                                                                                                ..",
"..                                                                                                ..",
"..                                                                                                ..",
"..                                                                                                ..",
"..                                                                                                ..",
"..                                                                                                ..",
"..                                                                                                ..",
"..                                                                                                ..",
"..                                                                                                ..",
"..                                                                                                ..",
"..                                                                                                ..",
"..                                                                                                ..",
"..                                                                                                ..",
"..                                                                                                ..",
"..                                                                                                ..",
"..                                                                                                ..",
"..                                                                                                ..",
"..                                                                                                ..",
"..                                                                                                ..",
"..                                                                                                ..",
"..                                                                                                ..",
"..                                                                                                ..",
"..                                                                                                ..",
"..                                                                                                ..",
"..                                                                                                ..",
"..                                                                                                ..",
"..                                                                                                ..",
"..                                                                                                ..",
"..                                                                                                ..",
"..                                                                                                ..",
"..                                                                                                ..",
"..                                                                                                ..",
"..                                                                                                ..",
"..                                                                                                ..",
"..                                                                                                ..",
"..                                                                                                ..",
"..                                                                                                ..",
"..                                                                                                ..",
"..                                                                                                ..",
"..                                                                                                ..",
"..                                                                                                ..",
"..                                                                                                ..",
"..                                                                                                ..",
"..                                                                                                ..",
"..                                                                                                ..",
"..                                                                                                ..",
"..                                                                                                ..",
"..                                                                                                ..",
"..                                                                                                ..",
"..                                                                                                ..",
"..                                                                                                ..",
"..                                                                                                ..",
"..                                                                                                ..",
"..                                                                                                ..",
"..                                                                                                ..",
"..                                                                                                ..",
"..                                                                                                ..",
"..                                                                                                ..",
"..                                                                                                ..",
"..                                                                                                ..",
"..                                                                                                ..",
"..                                                                                                ..",
"..                                                                                                ..",
"..                                                                                                ..",
"..                                                                                                ..",
"..                                                                                                ..",
"..                                                                                                ..",
"..                                                                                                ..",
"..                                                                                                ..",
"..                                                                                                ..",
"..                                                                                                ..",
"..                                                                                                ..",
"..                                                                                                ..",
"..                                                                                                ..",
"..                                                                                                ..",
"..                                                                                                ..",
"..                                                                                                ..",
"..                                                                                                ..",
"..                                                                                                ..",
"..                                                                                                ..",
"..                                                                                                ..",
"..                                                                                                ..",
"..                                                                                                ..",
"..                                                                                                ..",
"....................................................................................................",
"...................................................................................................."
};
