/* XPM */
static char *_20b6d382a5b451ba02d714b1ff5114d[] = {
/* columns rows colors chars-per-pixel */
"100 100 2 1 ",
"  c gray63",
". c gray100",
/* pixels */
"....................................................................................................",
"....................................................................................................",
"..                                                                                                ..",
"..                                                                                                ..",
"..                                                                                                ..",
"..                                                                                                ..",
"..                                                                                                ..",
"..                                                                                                ..",
"..                                                                                                ..",
"..                                                                                                ..",
"..                                                                                                ..",
"..                                                                                                ..",
"..                                                                                                ..",
"..                                                                                                ..",
"..                                                                                                ..",
"..                                                                                                ..",
"..                                                                                                ..",
"..                                                                                                ..",
"..                                                                                                ..",
"..                                                                                                ..",
"..                                                                                                ..",
"..                                                                                                ..",
"..                                                                                                ..",
"..                                                                                                ..",
"..                                                                                                ..",
"..                                                                                                ..",
"..                                                                                                ..",
"..                                                                                                ..",
"..                                                                                                ..",
"..                                                                                                ..",
"..                                                                                                ..",
"..                                                                                                ..",
"..                                                                                                ..",
"..                                                                                                ..",
"..                                                                                                ..",
"..                                                                                                ..",
"..                                                                                                ..",
"..                                                                                                ..",
"..                                                                                                ..",
"..                                                                                                ..",
"..                                                                                                ..",
"..                                                                                                ..",
"..                                                                                                ..",
"..                                                                                                ..",
"..                                                                                                ..",
"..                                                                                                ..",
"..                                                                                                ..",
"..                                                                                                ..",
"..                                                                                                ..",
"..                                                                                                ..",
"..                                                                                                ..",
"..                                                                                                ..",
"..                                                                                                ..",
"..                                                                                                ..",
"..                                                                                                ..",
"..                                                                                                ..",
"..                                                                                                ..",
"..                                                                                                ..",
"..                                                                                                ..",
"..                                                                                                ..",
"..                                                                                                ..",
"..                                                                                                ..",
"..                                                                                                ..",
"..                                                                                                ..",
"..                                                                                                ..",
"..                                                                                                ..",
"..                                                                                                ..",
"..                                                                                                ..",
"..                                                                                                ..",
"..                                                                                                ..",
"..                                                                                                ..",
"..                                                                                                ..",
"..                                                                                                ..",
"..                                                                                                ..",
"..                                                                                                ..",
"..                                                                                                ..",
"..                                                                                                ..",
"..                                                                                                ..",
"..                                                                                                ..",
"..                                                                                                ..",
"..                                                                                                ..",
"..                                                                                                ..",
"..                                                                                                ..",
"..                                                                                                ..",
"..                                                                                                ..",
"..                                                                                                ..",
"..                                                                                                ..",
"..                                                                                                ..",
"..                                                                                                ..",
"..                                                                                                ..",
"..                                                                                                ..",
"..                                                                                                ..",
"..                                                                                                ..",
"..                                                                                                ..",
"..                                                                                                ..",
"..                                                                                                ..",
"..                                                                                                ..",
"..                                                                                                ..",
"....................................................................................................",
"...................................................................................................."
};
